<svg id="Capa_1" data-name="Capa 1" xmlns="http://www.w3.org/2000/svg" viewBox="0 0 1005 600"><defs><style>.cls-1{fill:#fff;}.cls-2{fill:#ff7f0e;}.cls-3{fill:#1f77b4;}.cls-4{fill:#2ca02c;}.cls-5{fill:none;stroke:#000;}.cls-6,.cls-7,.cls-8{isolation:isolate;}.cls-6{font-size:10px;font-family:Helvetica;}.cls-8{font-size:19.34px;font-family:ArialMT, Arial;}</style></defs><title>grafica2</title><rect id="backgorund" class="cls-1" width="1005" height="600"/><rect id="undefined_-_Muertos" data-name="undefined - Muertos" class="cls-2" x="54.96" y="484" width="22.06" height="96"/><rect id="undefined_-_Desaparecidos" data-name="undefined - Desaparecidos" class="cls-3" x="78.01" y="468" width="22.06" height="112"/><rect id="undefined_-_Sobrevivientes" data-name="undefined - Sobrevivientes" class="cls-4" x="101.06" y="68" width="22.06" height="512"/><rect id="undefined_-_Muertos-2" data-name="undefined - Muertos" class="cls-2" x="129.07" y="420" width="22.06" height="160"/><rect id="undefined_-_Desaparecidos-2" data-name="undefined - Desaparecidos" class="cls-3" x="152.11" y="468" width="22.06" height="112"/><rect id="undefined_-_Sobrevivientes-2" data-name="undefined - Sobrevivientes" class="cls-4" x="175.16" y="132" width="22.06" height="448"/><rect id="undefined_-_Muertos-3" data-name="undefined - Muertos" class="cls-2" x="203.17" y="404" width="22.06" height="176"/><rect id="undefined_-_Desaparecidos-3" data-name="undefined - Desaparecidos" class="cls-3" x="226.21" y="468" width="22.06" height="112"/><rect id="undefined_-_Sobrevivientes-3" data-name="undefined - Sobrevivientes" class="cls-4" x="249.26" y="148" width="22.06" height="432"/><rect id="undefined_-_Muertos-4" data-name="undefined - Muertos" class="cls-2" x="277.27" y="324" width="22.06" height="256"/><rect id="undefined_-_Desaparecidos-4" data-name="undefined - Desaparecidos" class="cls-3" x="300.32" y="548" width="22.06" height="32"/><rect id="undefined_-_Sobrevivientes-4" data-name="undefined - Sobrevivientes" class="cls-4" x="323.36" y="148" width="22.06" height="432"/><rect id="undefined_-_Muertos-5" data-name="undefined - Muertos" class="cls-2" x="351.37" y="196" width="22.06" height="384"/><rect id="undefined_-_Desaparecidos-5" data-name="undefined - Desaparecidos" class="cls-3" x="374.42" y="548" width="22.06" height="32"/><rect id="undefined_-_Sobrevivientes-5" data-name="undefined - Sobrevivientes" class="cls-4" x="397.46" y="276" width="22.06" height="304"/><rect id="undefined_-_Muertos-6" data-name="undefined - Muertos" class="cls-2" x="425.48" y="180.73" width="22.06" height="400"/><rect id="undefined_-_Desaparecidos-6" data-name="undefined - Desaparecidos" class="cls-3" x="448.52" y="548.73" width="22.06" height="32"/><rect id="undefined_-_Sobrevivientes-6" data-name="undefined - Sobrevivientes" class="cls-4" x="471.57" y="292.73" width="22.06" height="288"/><rect id="undefined_-_Muertos-7" data-name="undefined - Muertos" class="cls-2" x="498.67" y="163.95" width="22.06" height="416"/><rect id="undefined_-_Desaparecidos-7" data-name="undefined - Desaparecidos" class="cls-3" x="521.72" y="547.95" width="22.06" height="32"/><rect id="undefined_-_Sobrevivientes-7" data-name="undefined - Sobrevivientes" class="cls-4" x="544.76" y="307.95" width="22.06" height="272"/><rect id="undefined_-_Muertos-8" data-name="undefined - Muertos" class="cls-2" x="573.68" y="148.73" width="22.06" height="432"/><rect id="undefined_-_Desaparecidos-8" data-name="undefined - Desaparecidos" class="cls-3" x="596.73" y="548.73" width="22.06" height="32"/><rect id="undefined_-_Sobrevivientes-8" data-name="undefined - Sobrevivientes" class="cls-4" x="619.77" y="324.73" width="22.06" height="256"/><rect id="undefined_-_Muertos-9" data-name="undefined - Muertos" class="cls-2" x="647.78" y="132.73" width="22.06" height="448"/><rect id="undefined_-_Desaparecidos-9" data-name="undefined - Desaparecidos" class="cls-3" x="670.83" y="564.73" width="22.06" height="16"/><rect id="undefined_-_Sobrevivientes-9" data-name="undefined - Sobrevivientes" class="cls-4" x="693.87" y="324.73" width="22.06" height="256"/><rect id="undefined_-_Muertos-10" data-name="undefined - Muertos" class="cls-2" x="721.88" y="116.73" width="22.06" height="464"/><rect id="undefined_-_Sobrevivientes-10" data-name="undefined - Sobrevivientes" class="cls-4" x="767.98" y="324.73" width="22.06" height="256"/><g id="xAxis"><path class="cls-5" d="M50,580H795"/><line class="cls-5" x1="89.04" y1="580" x2="89.04" y2="586"/><text class="cls-6" transform="translate(77.09 596.1)">Día 1</text><line class="cls-5" x1="164.06" y1="579.95" x2="164.06" y2="585.95"/><text class="cls-6" transform="translate(152.11 596.05)">Día 2</text><line class="cls-5" x1="314.06" y1="580" x2="314.06" y2="586"/><text class="cls-6" transform="translate(299.33 596.1)">Día 12</text><line class="cls-5" x1="383.27" y1="580" x2="383.27" y2="586"/><text class="cls-6" transform="translate(368.54 596.1)">Día 17</text><line class="cls-5" x1="459.55" y1="579.95" x2="459.55" y2="585.95"/><text class="cls-6" transform="translate(444.82 596.05)">Día 34</text><line class="cls-5" x1="533.3" y1="580" x2="533.3" y2="586"/><text class="cls-6" transform="translate(518.57 596.1)">Día 37</text><line class="cls-5" x1="606.57" y1="579.95" x2="606.57" y2="585.95"/><text class="cls-6" transform="translate(591.84 596.05)">Día 60</text><line class="cls-5" x1="681.86" y1="580.73" x2="681.86" y2="586.73"/><text class="cls-6" transform="translate(667.13 596.83)">Día 62</text><line class="cls-5" x1="755.27" y1="579.95" x2="755.27" y2="585.95"/><text class="cls-6" transform="translate(740.54 596.05)">Día 63</text><line class="cls-5" x1="238.17" y1="580" x2="238.17" y2="586"/><text class="cls-6" transform="translate(226.21 596.1)">Día 9</text></g><g id="yAxis"><path class="cls-5" d="M50,580V20"/><line class="cls-5" x1="50" y1="580" x2="44" y2="580"/><text class="cls-6" transform="translate(35.44 583.2)">0</text><line class="cls-5" x1="50" y1="500" x2="44" y2="500"/><text class="cls-6" transform="translate(35.44 503.2)">5</text><line class="cls-5" x1="50" y1="420" x2="44" y2="420"/><text class="cls-6" transform="translate(29.88 423.2)">10</text><line class="cls-5" x1="50" y1="340" x2="44" y2="340"/><text class="cls-6" transform="translate(29.88 343.2)">15</text><line class="cls-5" x1="50" y1="260" x2="44" y2="260"/><text class="cls-6" transform="translate(29.88 263.2)">20</text><line class="cls-5" x1="50" y1="180" x2="44" y2="180"/><text class="cls-6" transform="translate(29.88 183.2)">25</text><line class="cls-5" x1="50" y1="100" x2="44" y2="100"/><text class="cls-6" transform="translate(29.88 103.2)">30</text><line class="cls-5" x1="50" y1="20" x2="44" y2="20"/><text class="cls-6" transform="translate(29.88 23.2)">35</text></g><rect class="cls-3" x="819.02" y="74.93" width="29.01" height="29.01"/><g class="cls-7"><text class="cls-8" transform="translate(857.7 99.11)">Desaparecidos</text></g><rect class="cls-2" x="819.02" y="30.48" width="29.01" height="29.01"/><g class="cls-7"><text class="cls-8" transform="translate(857.7 54.65)">Muertos</text></g><rect class="cls-4" x="819.02" y="123.27" width="29.01" height="29.01"/><g class="cls-7"><text class="cls-8" transform="translate(857.7 147.45)">Sobrevivientes</text></g></svg>